<svg xmlns="http://www.w3.org/2000/svg" xmlns:xlink="http://www.w3.org/1999/xlink" width="478.5404" height="370.9634" viewBox="0 0 478.5404 370.9634"><defs><radialGradient id="a" cx="256.7225" cy="96.3171" r="249.8155" gradientUnits="userSpaceOnUse"><stop offset="0" stop-color="#e39a65"/><stop offset="0.4742" stop-color="#a92ffb"/><stop offset="0.5947" stop-color="#891cfb"/><stop offset="0.7421" stop-color="#6507fa"/><stop offset="0.8016" stop-color="#0d0c6f"/></radialGradient><radialGradient id="b" cx="103.93" cy="296.9371" r="273.1711" gradientUnits="userSpaceOnUse"><stop offset="0" stop-color="#e39a65"/><stop offset="0.4742" stop-color="#a92ffb"/><stop offset="0.5679" stop-color="#891cfb"/><stop offset="0.6825" stop-color="#6507fa"/><stop offset="0.7381" stop-color="#0d0c6f"/></radialGradient><radialGradient id="c" cx="129.0543" cy="242.1071" r="244.9645" gradientUnits="userSpaceOnUse"><stop offset="0" stop-color="#e39a65"/><stop offset="0.4742" stop-color="#a92ffb"/><stop offset="0.5875" stop-color="#891cfb"/><stop offset="0.7262" stop-color="#6507fa"/><stop offset="1" stop-color="#3919bb"/></radialGradient><radialGradient id="d" cx="190.08" cy="148.4263" r="249.8657" xlink:href="#c"/><linearGradient id="e" x1="217.5431" y1="214.0166" x2="417.7641" y2="214.0166" gradientUnits="userSpaceOnUse"><stop offset="0" stop-color="#3919bb"/><stop offset="1" stop-color="#6507fa"/></linearGradient><radialGradient id="f" cx="98.8653" cy="95.0688" r="389.1592" xlink:href="#c"/><radialGradient id="g" cx="88.651" cy="171.3423" r="184.9864" gradientUnits="userSpaceOnUse"><stop offset="0" stop-color="#e39a65"/><stop offset="0.1528" stop-color="#a92ffb"/><stop offset="0.4087" stop-color="#3919bb"/><stop offset="0.9311" stop-color="#3919bb"/></radialGradient><linearGradient id="h" x1="91.9249" y1="148.4262" x2="158.2781" y2="148.4262" gradientUnits="userSpaceOnUse"><stop offset="0" stop-color="#e39a65"/><stop offset="0.252" stop-color="#a92ffb"/><stop offset="0.5556" stop-color="#3919bb"/></linearGradient><linearGradient id="i" x1="81.4168" y1="74.5364" x2="135.3236" y2="74.5364" gradientUnits="userSpaceOnUse"><stop offset="0" stop-color="#4f1fec"/><stop offset="1" stop-color="#a92ffb"/></linearGradient><linearGradient id="j" x1="80.1379" y1="74.5364" x2="134.0447" y2="74.5364" xlink:href="#i"/><linearGradient id="k" x1="98.1511" y1="137.9494" x2="166.1184" y2="137.9494" gradientUnits="userSpaceOnUse"><stop offset="0" stop-color="#131060"/><stop offset="0.1857" stop-color="#141062"/><stop offset="0.2823" stop-color="#19106a"/><stop offset="0.3584" stop-color="#221078"/><stop offset="0.4238" stop-color="#2e0f8b"/><stop offset="0.4823" stop-color="#3e0fa3"/><stop offset="0.5359" stop-color="#510ec2"/><stop offset="0.5847" stop-color="#680de5"/><stop offset="0.6071" stop-color="#740df8"/><stop offset="0.6179" stop-color="#7a14f0"/><stop offset="0.6826" stop-color="#9b3cc3"/><stop offset="0.7477" stop-color="#b75d9d"/><stop offset="0.8123" stop-color="#cc7680"/><stop offset="0.8762" stop-color="#dc886c"/><stop offset="0.9391" stop-color="#e5935f"/><stop offset="1" stop-color="#e8975b"/></linearGradient><radialGradient id="l" cx="83.643" cy="129.6532" r="121.0105" gradientUnits="userSpaceOnUse"><stop offset="0" stop-color="#e39a65"/><stop offset="0.252" stop-color="#a92ffb"/><stop offset="0.7357" stop-color="#3919bb"/></radialGradient><linearGradient id="m" x1="120.8339" y1="159.8852" x2="130.2366" y2="159.8852" xlink:href="#k"/></defs><title>hero</title><path d="M477.0281,382.6064a7.7878,7.7878,0,0,1-3.895-1.0413l-13.13-7.5811a2.43,2.43,0,0,1,0-4.2117l13.13-7.5812a7.81,7.81,0,0,1,7.7888,0l13.1312,7.5812a2.43,2.43,0,0,1,0,4.2117l-13.13,7.5811A7.7844,7.7844,0,0,1,477.0281,382.6064Zm0-19.3741a5.71,5.71,0,0,0-2.8548.7614l-13.13,7.5812a.35.35,0,0,0,0,.6064l13.1313,7.5812h.0011a5.7246,5.7246,0,0,0,5.7074,0l13.13-7.5812a.35.35,0,0,0,0-.6064l-13.1314-7.5812A5.7083,5.7083,0,0,0,477.0281,363.2323Z" transform="translate(-16.7298 -70.5183)" fill="#6b46c1"/><path d="M439.4741,339.5886a12.64,12.64,0,0,1-6.3269-1.69L410.55,324.8512a3.4322,3.4322,0,0,1,0-5.9478l22.5959-13.046a12.6824,12.6824,0,0,1,12.6538,0l22.5982,13.046a3.4349,3.4349,0,0,1,.0011,5.9489l-22.5981,13.046A12.6516,12.6516,0,0,1,439.4741,339.5886Zm-5.2868-3.4929a10.61,10.61,0,0,0,10.5737,0l22.597-13.046a1.3544,1.3544,0,0,0,0-2.3435L444.76,307.66a10.61,10.61,0,0,0-10.5736,0L411.59,320.7062a1.3522,1.3522,0,0,0,0,2.3423Z" transform="translate(-16.7298 -70.5183)" fill="#6b46c1"/><path d="M47.3723,362.8527a12.6408,12.6408,0,0,1-6.3269-1.69L18.4472,348.1165a3.4344,3.4344,0,0,1,0-5.9488l22.5971-13.0461a12.68,12.68,0,0,1,12.6538,0l22.5971,13.0471a3.4324,3.4324,0,0,1,0,5.9478l-22.596,13.0461A12.6518,12.6518,0,0,1,47.3723,362.8527Zm-.001-33.34a10.5809,10.5809,0,0,0-5.2869,1.4116L19.4873,343.97a1.3538,1.3538,0,0,0,.0011,2.3435L42.0854,359.36h0a10.61,10.61,0,0,0,10.5737,0l22.596-13.0461a1.3522,1.3522,0,0,0,0-2.3423L52.658,330.9243A10.5807,10.5807,0,0,0,47.3713,329.5127Z" transform="translate(-16.7298 -70.5183)" fill="#6b46c1"/><path d="M351.5331,441.4817a9.112,9.112,0,0,1-4.5606-1.2183l-16.2893-9.404a2.4755,2.4755,0,0,1,0-4.288l16.2885-9.404a9.14,9.14,0,0,1,9.1212,0l16.2886,9.4047a2.4742,2.4742,0,0,1,0,4.2873l-16.2878,9.404A9.1205,9.1205,0,0,1,351.5331,441.4817Zm-.0007-24.0323a7.6266,7.6266,0,0,0-3.8109,1.0175l-16.2886,9.4039a.9758.9758,0,0,0,.0008,1.6892l16.2885,9.404h0a7.6481,7.6481,0,0,0,7.6218,0l16.2877-9.404a.9747.9747,0,0,0,0-1.6884l-16.2885-9.4047A7.6268,7.6268,0,0,0,351.5324,417.4494Z" transform="translate(-16.7298 -70.5183)" fill="#6b46c1"/><path d="M267.8914,433.8793a10.32,10.32,0,0,1-5.0847-1.1919h.0011L78.3932,326.2159a4.12,4.12,0,0,1-2.3359-3.53c0-1.6169,1.1254-3.1946,3.0876-4.3276l125.7089-73.65c3.4481-1.9917,8.5132-2.1829,11.534-.4381L400.8014,350.7423a4.12,4.12,0,0,1,2.3359,3.53c0,1.617-1.1254,3.1936-3.0886,4.3265l-125.708,73.6505A13.1909,13.1909,0,0,1,267.8914,433.8793Zm-56.5642-188.71a11.2193,11.2193,0,0,0-5.4266,1.3384l-125.708,73.65c-1.2882.7441-2.053,1.688-2.053,2.527a2.202,2.202,0,0,0,1.2937,1.7284L263.8479,430.8847h.001c2.3545,1.3613,6.6809,1.1624,9.444-.4348L399.002,356.7994c1.2881-.7441,2.0529-1.6869,2.0529-2.5271a2.2022,2.2022,0,0,0-1.2936-1.7273L215.3477,246.0723A8.2491,8.2491,0,0,0,211.3272,245.1688Z" transform="translate(-16.7298 -70.5183)" fill="#6b46c1"/><path d="M264.19,417.0368l-161.5835-93.29c-2.3552-1.36-2.06-3.7349.66-5.305l103.7057-59.8746c2.72-1.57,6.8334-1.74,9.1887-.3808l161.5836,93.29c2.3551,1.36,2.06,3.735-.66,5.3051L273.3782,416.656C270.6587,418.226,266.5448,418.3966,264.19,417.0368Z" transform="translate(-16.7298 -70.5183)" fill="#020230" opacity="0.6"/><path d="M420.67,195.0745l-160.9473-92.923a4.17,4.17,0,0,0-3.2851-.4718v0l-.0014.0005-.0146.005-2.98,1.0385,1.049.2479a5.2014,5.2014,0,0,0-.9828,1.8407L217.11,222.9885a7.1281,7.1281,0,0,0,2.95,7.9521l160.9474,92.923a4.7231,4.7231,0,0,0,1.1841.4836l-.3988.8685,2.8468-1-.0067-.0024a4.5487,4.5487,0,0,0,2.5895-3.0105L423.62,203.0266A7.1284,7.1284,0,0,0,420.67,195.0745Z" transform="translate(-16.7298 -70.5183)" fill="url(#a)"/><path d="M375.2468,328.2762l.0571.0681L216.33,236.56c-2.3386-1.35-6.4234-1.1809-9.1238.3781L104.4929,296.24l-3.425-1.3076.9619,4.8051.0047-.0027a2.8755,2.8755,0,0,0,1.5419,1.9238L264.02,394.2906c2.3387,1.35,6.4235,1.1809,9.1239-.3781L376.1181,334.46a4.1176,4.1176,0,0,0,2.1823-2.5432l.0059.007.9826-4.6766Z" transform="translate(-16.7298 -70.5183)" fill="url(#b)"/><path d="M264.19,390.0633l-161.5835-93.29c-2.3552-1.36-2.06-3.735.66-5.305l103.7057-59.8746c2.72-1.57,6.8334-1.7407,9.1887-.3808l161.5836,93.29c2.3551,1.36,2.06,3.735-.66,5.3051L273.3782,389.6824C270.6587,391.2525,266.5448,391.4231,264.19,390.0633Z" transform="translate(-16.7298 -70.5183)" fill="url(#c)"/><path d="M377.0837,328.55,273.3782,388.424c-2.7195,1.57-6.8334,1.7409-9.1885.3811l-161.5837-93.29a3.0174,3.0174,0,0,1-1.4693-1.6757,2.5181,2.5181,0,0,0,1.4693,2.9339L264.19,390.0634c2.3551,1.36,6.469,1.189,9.1885-.3808L377.0837,329.808c1.7932-1.0352,2.5083-2.4162,2.1292-3.6294A4.28,4.28,0,0,1,377.0837,328.55Z" transform="translate(-16.7298 -70.5183)" fill="#fff"/><g opacity="0.4"><path d="M179.6793,281.6336l-5.4553-3.15c-.438-.2528-.3831-.6946.1227-.9866l6.4391-3.7175a1.8994,1.8994,0,0,1,1.7089-.071l5.4552,3.15c.4381.2528.3832.6946-.1226.9866l-6.4392,3.7176A1.8992,1.8992,0,0,1,179.6793,281.6336Z" transform="translate(-16.7298 -70.5183)" fill="#06033e"/><path d="M188.1038,286.4975l-5.4552-3.15c-.4381-.2529-.3832-.6947.1226-.9867l6.4392-3.7175a1.8989,1.8989,0,0,1,1.7088-.0709l5.4553,3.15c.438.2529.3831.6947-.1227.9867l-6.4391,3.7175A1.8991,1.8991,0,0,1,188.1038,286.4975Z" transform="translate(-16.7298 -70.5183)" fill="#06033e"/><path d="M196.5285,291.3615l-5.4554-3.15c-.438-.2528-.383-.6946.1228-.9866l6.4391-3.7176a1.8992,1.8992,0,0,1,1.7088-.0709l5.4553,3.15c.438.2528.3831.6946-.1227.9866l-6.439,3.7175A1.8994,1.8994,0,0,1,196.5285,291.3615Z" transform="translate(-16.7298 -70.5183)" fill="#06033e"/><path d="M208.18,287.3445l-5.4553-3.1495c-.438-.2528-.383-.6946.1228-.9866l5.4052-3.1207a1.8994,1.8994,0,0,1,1.7089-.0709l5.4553,3.15c.438.2529.383.6947-.1227.9867l-5.4054,3.1206A1.8989,1.8989,0,0,1,208.18,287.3445Z" transform="translate(-16.7298 -70.5183)" fill="#06033e"/><path d="M216.6047,292.2085l-5.4552-3.15c-.4382-.2528-.3832-.6946.1226-.9866l5.4053-3.1207a1.9,1.9,0,0,1,1.7089-.0709l5.4552,3.15c.438.2528.3831.6946-.1226.9866l-5.4053,3.1207A1.8994,1.8994,0,0,1,216.6047,292.2085Z" transform="translate(-16.7298 -70.5183)" fill="#06033e"/><path d="M225.0293,297.0725l-5.4553-3.15c-.438-.2529-.3831-.6947.1227-.9867l5.4053-3.1206a1.9,1.9,0,0,1,1.7088-.071l5.4553,3.15c.438.2528.3831.6946-.1227.9866l-5.4053,3.1207A1.8992,1.8992,0,0,1,225.0293,297.0725Z" transform="translate(-16.7298 -70.5183)" fill="#06033e"/><path d="M233.4539,301.9365l-5.4553-3.15c-.438-.2528-.3831-.6946.1227-.9866l5.4052-3.1207a1.8991,1.8991,0,0,1,1.7089-.0708l5.4553,3.1495c.438.2529.3831.6947-.1227.9867l-5.4053,3.1206A1.9,1.9,0,0,1,233.4539,301.9365Z" transform="translate(-16.7298 -70.5183)" fill="#06033e"/><path d="M241.8784,306.8l-5.4552-3.15c-.4381-.2529-.3832-.6947.1226-.9867l5.4053-3.1207a1.9,1.9,0,0,1,1.709-.0708l5.4552,3.15c.438.2529.383.6946-.1227.9866l-5.4053,3.1207A1.8994,1.8994,0,0,1,241.8784,306.8Z" transform="translate(-16.7298 -70.5183)" fill="#06033e"/><path d="M250.3031,311.6643l-5.4554-3.15c-.438-.2529-.383-.6947.1228-.9866l5.4053-3.1207a1.8989,1.8989,0,0,1,1.7088-.0708l5.4553,3.15c.438.253.383.6946-.1227.9866l-5.4052,3.1207A1.8991,1.8991,0,0,1,250.3031,311.6643Z" transform="translate(-16.7298 -70.5183)" fill="#06033e"/><path d="M258.7277,316.5283l-5.4553-3.15c-.438-.2528-.3831-.6946.1227-.9866l5.4052-3.1207a1.8991,1.8991,0,0,1,1.7089-.0708l5.4553,3.15c.438.253.3831.6947-.1227.9867l-5.4053,3.1207A1.8992,1.8992,0,0,1,258.7277,316.5283Z" transform="translate(-16.7298 -70.5183)" fill="#06033e"/><path d="M267.1522,321.3922l-5.4552-3.15c-.438-.2529-.3831-.6947.1226-.9867l5.4053-3.1207a1.8994,1.8994,0,0,1,1.7089-.0708l5.4552,3.15c.438.2529.3831.6946-.1226.9866l-5.4053,3.1208A1.8994,1.8994,0,0,1,267.1522,321.3922Z" transform="translate(-16.7298 -70.5183)" fill="#06033e"/><path d="M275.5768,326.2562l-5.4553-3.15c-.438-.2528-.3831-.6946.1227-.9866l5.4053-3.1207a1.8989,1.8989,0,0,1,1.7088-.0708l5.4554,3.1495c.438.253.383.6947-.1228.9866l-5.4052,3.1208A1.9,1.9,0,0,1,275.5768,326.2562Z" transform="translate(-16.7298 -70.5183)" fill="#06033e"/><path d="M284.0014,331.12l-5.4553-3.15c-.438-.2528-.383-.6946.1228-.9866l5.4051-3.1207a1.9,1.9,0,0,1,1.709-.0708l5.4553,3.1495c.438.253.383.6947-.1228.9867l-5.4053,3.1208A1.9,1.9,0,0,1,284.0014,331.12Z" transform="translate(-16.7298 -70.5183)" fill="#06033e"/><path d="M220.5932,285.0418l-5.4552-3.15c-.438-.253-.3831-.6947.1226-.9867l5.4053-3.1208a1.9,1.9,0,0,1,1.7089-.0708l5.4552,3.15c.438.2528.3831.6946-.1226.9866l-5.4053,3.1207A1.8991,1.8991,0,0,1,220.5932,285.0418Z" transform="translate(-16.7298 -70.5183)" fill="#06033e"/><path d="M212.0429,280.1053l-5.4553-3.15c-.438-.2529-.3831-.6946.1227-.9866l5.4052-3.1208a1.8994,1.8994,0,0,1,1.7089-.0708l5.4553,3.15c.438.2529.3831.6947-.1227.9867l-5.4053,3.1206A1.8992,1.8992,0,0,1,212.0429,280.1053Z" transform="translate(-16.7298 -70.5183)" fill="#06033e"/><path d="M203.4785,275.1607l-11.7492-6.7834c-.438-.2529-.3831-.6947.1227-.9867l5.4052-3.1207a1.9,1.9,0,0,1,1.7089-.0709l11.7493,6.7835c.438.2529.383.6947-.1226.9867l-5.4053,3.1206A1.9,1.9,0,0,1,203.4785,275.1607Z" transform="translate(-16.7298 -70.5183)" fill="#06033e"/><path d="M209.4649,269.1474l-9.5347-5.5049c-.4381-.2529-.3832-.6946.1226-.9866l5.4053-3.1208a1.8994,1.8994,0,0,1,1.7089-.0708l9.5348,5.505c.438.2528.383.6946-.1226.9866l-5.4054,3.1207A1.8991,1.8991,0,0,1,209.4649,269.1474Z" transform="translate(-16.7298 -70.5183)" fill="#06033e"/><path d="M229.0178,289.9057l-5.4553-3.15c-.438-.253-.3831-.6946.1227-.9866l5.4053-3.1208a1.9,1.9,0,0,1,1.7088-.0709l5.4553,3.15c.438.2528.3831.6946-.1227.9866l-5.4052,3.1207A1.8991,1.8991,0,0,1,229.0178,289.9057Z" transform="translate(-16.7298 -70.5183)" fill="#06033e"/><path d="M237.4424,294.77l-5.4553-3.15c-.438-.2529-.3831-.6946.1227-.9866l5.4052-3.1208a1.8994,1.8994,0,0,1,1.7089-.0708l5.4553,3.15c.438.2529.3831.6947-.1227.9867l-5.4053,3.1207A1.8992,1.8992,0,0,1,237.4424,294.77Z" transform="translate(-16.7298 -70.5183)" fill="#06033e"/><path d="M245.8669,299.6336l-5.4552-3.1495c-.438-.253-.383-.6947.1226-.9867l5.4053-3.1207a1.9,1.9,0,0,1,1.709-.0709l5.4552,3.15c.438.2528.383.6946-.1227.9866l-5.4053,3.1207A1.8991,1.8991,0,0,1,245.8669,299.6336Z" transform="translate(-16.7298 -70.5183)" fill="#06033e"/><path d="M254.2916,304.4975l-5.4553-3.1495c-.4381-.253-.3831-.6946.1227-.9866l5.4053-3.1207a1.8989,1.8989,0,0,1,1.7088-.0709l5.4553,3.15c.438.2529.3831.6947-.1227.9866l-5.4052,3.1207A1.8991,1.8991,0,0,1,254.2916,304.4975Z" transform="translate(-16.7298 -70.5183)" fill="#06033e"/><path d="M262.7162,309.3615l-5.4553-3.15c-.438-.2529-.3831-.6946.1227-.9866l5.4053-3.1207a1.8992,1.8992,0,0,1,1.7088-.0709l5.4553,3.15c.438.2529.3831.6947-.1227.9867l-5.4053,3.1207A1.8992,1.8992,0,0,1,262.7162,309.3615Z" transform="translate(-16.7298 -70.5183)" fill="#06033e"/><path d="M271.1407,314.2254l-5.4552-3.1495c-.438-.2529-.3831-.6947.1226-.9867l5.4053-3.1206a1.9,1.9,0,0,1,1.7089-.071l5.4552,3.15c.4381.2528.3832.6946-.1226.9866l-5.4053,3.1207A1.8991,1.8991,0,0,1,271.1407,314.2254Z" transform="translate(-16.7298 -70.5183)" fill="#06033e"/><path d="M279.5653,319.0894l-5.4553-3.15c-.438-.2528-.3831-.6946.1227-.9866l5.4054-3.1207a1.899,1.899,0,0,1,1.7087-.0709l5.4554,3.15c.438.2529.383.6947-.1228.9867l-5.4052,3.1206A1.8994,1.8994,0,0,1,279.5653,319.0894Z" transform="translate(-16.7298 -70.5183)" fill="#06033e"/><path d="M287.99,323.9534l-5.4553-3.15c-.438-.2528-.383-.6946.1228-.9866l5.4053-3.1207a1.9,1.9,0,0,1,1.7088-.0709l5.4553,3.15c.438.2528.383.6946-.1227.9866l-5.4054,3.1207A1.9,1.9,0,0,1,287.99,323.9534Z" transform="translate(-16.7298 -70.5183)" fill="#06033e"/><path d="M296.4146,328.8173l-5.4553-3.15c-.438-.2529-.3831-.6947.1227-.9867l5.4052-3.1206a1.8991,1.8991,0,0,1,1.7089-.0708l5.4553,3.1495c.438.2528.3831.6946-.1227.9866l-5.4053,3.1207A1.8992,1.8992,0,0,1,296.4146,328.8173Z" transform="translate(-16.7298 -70.5183)" fill="#06033e"/><path d="M311.3916,337.4643l-11.903-6.8722c-.438-.2529-.3831-.6946.1227-.9866l5.4053-3.1208a1.9,1.9,0,0,1,1.7088-.0708l11.903,6.8722c.438.2529.3831.6946-.1227.9867l-5.4052,3.1206A1.8994,1.8994,0,0,1,311.3916,337.4643Z" transform="translate(-16.7298 -70.5183)" fill="#06033e"/><path d="M327.7932,327.9948l-10.0465-5.8c-.4381-.253-.3832-.6947.1226-.9867l5.4053-3.1207a1.9,1.9,0,0,1,1.7089-.0709l10.0465,5.8c.438.2529.3831.6946-.1227.9866l-5.4053,3.1208A1.8992,1.8992,0,0,1,327.7932,327.9948Z" transform="translate(-16.7298 -70.5183)" fill="#06033e"/><path d="M243.771,288.9541l-5.4552-3.15c-.4381-.2529-.3831-.6946.1227-.9867l5.4053-3.1207a1.8994,1.8994,0,0,1,1.7089-.0708l5.4552,3.15c.438.2529.383.6946-.1226.9866l-5.4053,3.1208A1.9,1.9,0,0,1,243.771,288.9541Z" transform="translate(-16.7298 -70.5183)" fill="#06033e"/><path d="M235.1369,283.9691l-5.4552-3.15c-.438-.253-.3831-.6947.1226-.9867l5.4053-3.1207a1.9,1.9,0,0,1,1.7089-.0709l5.4552,3.15c.438.2528.3831.6946-.1226.9866l-5.4053,3.1207A1.8991,1.8991,0,0,1,235.1369,283.9691Z" transform="translate(-16.7298 -70.5183)" fill="#06033e"/><path d="M226.5027,278.9843l-5.4552-3.15c-.438-.2528-.3831-.6945.1226-.9866l5.4053-3.1207a1.8991,1.8991,0,0,1,1.7089-.0708l5.4552,3.1495c.4381.253.3832.6946-.1226.9866l-5.4053,3.1208A1.9,1.9,0,0,1,226.5027,278.9843Z" transform="translate(-16.7298 -70.5183)" fill="#06033e"/><path d="M217.8686,273.9993l-5.4553-3.15c-.438-.2529-.383-.6946.1228-.9866l5.4051-3.1208a1.9,1.9,0,0,1,1.709-.0708l5.4553,3.15c.438.2529.383.6946-.1228.9867l-5.4053,3.1206A1.8992,1.8992,0,0,1,217.8686,273.9993Z" transform="translate(-16.7298 -70.5183)" fill="#06033e"/><path d="M252.1957,293.8181l-5.4554-3.15c-.4379-.2528-.383-.6945.1228-.9865l5.4053-3.1208a1.8989,1.8989,0,0,1,1.7088-.0708l5.4553,3.1495c.438.253.3831.6946-.1227.9866l-5.4053,3.1208A1.9,1.9,0,0,1,252.1957,293.8181Z" transform="translate(-16.7298 -70.5183)" fill="#06033e"/><path d="M260.62,298.682l-5.4553-3.15c-.438-.2528-.3831-.6945.1227-.9865l5.4052-3.1208a1.8991,1.8991,0,0,1,1.7089-.0708l5.4553,3.1495c.438.253.3831.6947-.1227.9867l-5.4053,3.1208A1.9,1.9,0,0,1,260.62,298.682Z" transform="translate(-16.7298 -70.5183)" fill="#06033e"/><path d="M269.0448,303.5459l-5.4552-3.15c-.438-.2529-.3831-.6946.1226-.9866l5.4053-3.1207a1.8994,1.8994,0,0,1,1.7089-.0709l5.4552,3.15c.438.2529.3831.6946-.1226.9866l-5.4053,3.1208A1.8994,1.8994,0,0,1,269.0448,303.5459Z" transform="translate(-16.7298 -70.5183)" fill="#06033e"/><path d="M277.4694,308.41l-5.4553-3.15c-.438-.2528-.383-.6945.1227-.9865l5.4053-3.1208a1.8994,1.8994,0,0,1,1.7089-.0708l5.4553,3.1495c.438.253.383.6947-.1228.9867l-5.4052,3.1207A1.9,1.9,0,0,1,277.4694,308.41Z" transform="translate(-16.7298 -70.5183)" fill="#06033e"/><path d="M285.8941,313.2738l-5.4554-3.15c-.438-.2528-.383-.6945.1228-.9865l5.4052-3.1208a1.9,1.9,0,0,1,1.7089-.0708l5.4553,3.15c.438.2529.3831.6946-.1227.9866l-5.4053,3.1208A1.9,1.9,0,0,1,285.8941,313.2738Z" transform="translate(-16.7298 -70.5183)" fill="#06033e"/><path d="M294.3186,318.1377l-5.4552-3.15c-.438-.2529-.3831-.6945.1226-.9865l5.4053-3.1208A1.9,1.9,0,0,1,296.1,310.81l5.4552,3.15c.438.2528.3831.6945-.1226.9865l-5.4053,3.1208A1.8994,1.8994,0,0,1,294.3186,318.1377Z" transform="translate(-16.7298 -70.5183)" fill="#06033e"/><path d="M302.7432,323.0017l-5.4553-3.15c-.438-.2528-.3831-.6945.1227-.9865l5.4053-3.1208a1.8992,1.8992,0,0,1,1.7088-.0708l5.4553,3.15c.438.2529.3831.6946-.1227.9866l-5.4052,3.1208A1.9,1.9,0,0,1,302.7432,323.0017Z" transform="translate(-16.7298 -70.5183)" fill="#06033e"/><path d="M311.1678,327.8656l-5.4553-3.15c-.438-.2529-.3831-.6946.1227-.9866l5.4053-3.1208a1.9,1.9,0,0,1,1.7088-.0708l5.4554,3.15c.438.2528.383.6945-.1228.9865l-5.4053,3.1208A1.8992,1.8992,0,0,1,311.1678,327.8656Z" transform="translate(-16.7298 -70.5183)" fill="#06033e"/><path d="M319.5923,332.73l-5.4552-3.1495c-.438-.2529-.383-.6946.1226-.9866l5.4054-3.1208a1.8994,1.8994,0,0,1,1.7089-.0708l5.4552,3.15c.4381.2529.3832.6945-.1226.9865l-5.4054,3.1208A1.8994,1.8994,0,0,1,319.5923,332.73Z" transform="translate(-16.7298 -70.5183)" fill="#06033e"/><path d="M239.335,276.9235l-5.4553-3.15c-.438-.2528-.3831-.6946.1227-.9866l5.4052-3.1207a1.8991,1.8991,0,0,1,1.7089-.0708l5.4554,3.1495c.438.253.383.6947-.1228.9867l-5.4053,3.1207A1.9,1.9,0,0,1,239.335,276.9235Z" transform="translate(-16.7298 -70.5183)" fill="#06033e"/><path d="M230.9524,272.0837l-5.4554-3.15c-.438-.2529-.383-.6946.1228-.9866l5.4052-3.1208a1.8994,1.8994,0,0,1,1.7089-.0708l5.4553,3.15c.438.2529.3831.6946-.1227.9866l-5.4053,3.1208A1.8992,1.8992,0,0,1,230.9524,272.0837Z" transform="translate(-16.7298 -70.5183)" fill="#06033e"/><path d="M222.57,267.2439l-5.4553-3.1495c-.438-.253-.3831-.6946.1227-.9866l5.4052-3.1208a1.8994,1.8994,0,0,1,1.7089-.0708l5.4553,3.15c.438.2529.3831.6945-.1227.9865l-5.4053,3.1208A1.8989,1.8989,0,0,1,222.57,267.2439Z" transform="translate(-16.7298 -70.5183)" fill="#06033e"/><path d="M214.187,262.4042l-5.4553-3.15c-.438-.2529-.3831-.6946.1227-.9866l5.4052-3.1207a1.8991,1.8991,0,0,1,1.7089-.0709l5.4552,3.15c.4381.2529.3832.6947-.1226.9867l-5.4053,3.1207A1.8992,1.8992,0,0,1,214.187,262.4042Z" transform="translate(-16.7298 -70.5183)" fill="#06033e"/><path d="M222.8069,257.4275l-5.4552-3.15c-.4382-.2529-.3832-.6946.1226-.9866l1.7869-1.0316a1.9,1.9,0,0,1,1.7089-.071l5.4552,3.15c.438.2528.383.6946-.1226.9866l-1.7869,1.0316A1.8994,1.8994,0,0,1,222.8069,257.4275Z" transform="translate(-16.7298 -70.5183)" fill="#06033e"/><path d="M233.7462,263.7433l-5.4552-3.1495c-.438-.253-.383-.6946.1227-.9866l1.7868-1.0317a1.9,1.9,0,0,1,1.709-.0709l5.4552,3.15c.438.2528.383.6946-.1227.9866l-1.7868,1.0316A1.8993,1.8993,0,0,1,233.7462,263.7433Z" transform="translate(-16.7298 -70.5183)" fill="#06033e"/><path d="M242.094,268.563l-5.4552-3.15c-.4381-.2528-.3832-.6946.1226-.9866l1.7869-1.0316a1.9,1.9,0,0,1,1.7089-.0709l5.4552,3.15c.438.2529.3831.6946-.1226.9866l-1.7869,1.0318A1.9,1.9,0,0,1,242.094,268.563Z" transform="translate(-16.7298 -70.5183)" fill="#06033e"/><path d="M250.4418,273.3825l-5.4553-3.15c-.438-.2529-.3831-.6946.1227-.9866l1.7869-1.0316a1.8989,1.8989,0,0,1,1.7088-.0709l5.4553,3.15c.438.2529.3831.6947-.1227.9867l-1.7868,1.0316A1.8994,1.8994,0,0,1,250.4418,273.3825Z" transform="translate(-16.7298 -70.5183)" fill="#06033e"/><path d="M258.7895,278.2021l-5.4553-3.15c-.438-.2529-.383-.6947.1228-.9867l1.7868-1.0316a1.8989,1.8989,0,0,1,1.7088-.0708l5.4554,3.15c.438.253.383.6947-.1228.9867l-1.7869,1.0317A1.8992,1.8992,0,0,1,258.7895,278.2021Z" transform="translate(-16.7298 -70.5183)" fill="#06033e"/><path d="M305.3938,305.1091l-5.4553-3.15c-.438-.2528-.3831-.6946.1227-.9866l1.7868-1.0316a1.9,1.9,0,0,1,1.7089-.0709l5.4553,3.15c.438.2529.3831.6946-.1227.9866l-1.7869,1.0317A1.9,1.9,0,0,1,305.3938,305.1091Z" transform="translate(-16.7298 -70.5183)" fill="#06033e"/><path d="M313.7414,309.9286l-5.4552-3.15c-.438-.2529-.383-.6946.1226-.9866l1.7869-1.0316a1.8991,1.8991,0,0,1,1.7089-.0709l5.4552,3.15c.4382.2529.3832.6947-.1226.9867l-1.7869,1.0316A1.8994,1.8994,0,0,1,313.7414,309.9286Z" transform="translate(-16.7298 -70.5183)" fill="#06033e"/><path d="M322.0892,314.7482l-5.4552-3.15c-.438-.2529-.3831-.6947.1226-.9867l1.7869-1.0316a1.9,1.9,0,0,1,1.7089-.0708l5.4552,3.1495c.438.253.3831.6947-.1226.9867l-1.7869,1.0317A1.8994,1.8994,0,0,1,322.0892,314.7482Z" transform="translate(-16.7298 -70.5183)" fill="#06033e"/><path d="M330.437,319.5677l-5.4552-3.1495c-.4382-.253-.3832-.6946.1226-.9866l1.7869-1.0317a1.8994,1.8994,0,0,1,1.7089-.0709l5.4552,3.15c.438.2528.3831.6946-.1226.9866l-1.7869,1.0316A1.8991,1.8991,0,0,1,330.437,319.5677Z" transform="translate(-16.7298 -70.5183)" fill="#06033e"/><path d="M247.76,281.7874l-5.4552-3.15c-.4379-.2529-.383-.6947.1227-.9867l5.4053-3.1206a1.8994,1.8994,0,0,1,1.7089-.0709l5.4552,3.15c.438.2529.383.6946-.1226.9866l-5.4053,3.1207A1.8993,1.8993,0,0,1,247.76,281.7874Z" transform="translate(-16.7298 -70.5183)" fill="#06033e"/><path d="M256.1842,286.6514l-5.4553-3.15c-.438-.2528-.3831-.6946.1227-.9866l5.4053-3.1207a1.8989,1.8989,0,0,1,1.7088-.0708l5.4553,3.1495c.438.253.3831.6947-.1227.9867l-5.4052,3.1206A1.8994,1.8994,0,0,1,256.1842,286.6514Z" transform="translate(-16.7298 -70.5183)" fill="#06033e"/><path d="M264.6088,291.5153l-5.4553-3.15c-.438-.2528-.3831-.6946.1227-.9866l5.4052-3.1207a1.8994,1.8994,0,0,1,1.7089-.0708l5.4553,3.15c.438.2529.3831.6946-.1227.9866l-5.4053,3.1208A1.9,1.9,0,0,1,264.6088,291.5153Z" transform="translate(-16.7298 -70.5183)" fill="#06033e"/><path d="M273.0333,296.3792l-5.4552-3.15c-.438-.2529-.3831-.6947.1226-.9867l5.4053-3.1206a1.8994,1.8994,0,0,1,1.7089-.0709l5.4553,3.15c.438.2529.3831.6946-.1227.9866l-5.4053,3.1208A1.8994,1.8994,0,0,1,273.0333,296.3792Z" transform="translate(-16.7298 -70.5183)" fill="#06033e"/><path d="M281.4579,301.2432l-5.4553-3.15c-.438-.2528-.383-.6946.1227-.9866l5.4054-3.1207a1.8989,1.8989,0,0,1,1.7088-.0708l5.4553,3.15c.438.253.383.6947-.1228.9867l-5.4052,3.1208A1.9,1.9,0,0,1,281.4579,301.2432Z" transform="translate(-16.7298 -70.5183)" fill="#06033e"/><path d="M289.8826,306.1071l-5.4554-3.15c-.438-.2529-.383-.6947.1228-.9867l5.4053-3.1207a1.8992,1.8992,0,0,1,1.7088-.0708l5.4553,3.15c.438.2529.3831.6946-.1227.9866l-5.4053,3.1208A1.8992,1.8992,0,0,1,289.8826,306.1071Z" transform="translate(-16.7298 -70.5183)" fill="#06033e"/><path d="M298.3071,310.971l-5.4552-3.15c-.438-.2528-.3831-.6945.1226-.9866l5.4053-3.1207a1.8991,1.8991,0,0,1,1.7089-.0708l5.4552,3.1495c.4381.253.3832.6946-.1226.9866L300.016,310.9A1.8994,1.8994,0,0,1,298.3071,310.971Z" transform="translate(-16.7298 -70.5183)" fill="#06033e"/><path d="M306.7317,315.835l-5.4552-3.15c-.4381-.2528-.3832-.6945.1226-.9866l5.4053-3.1207a1.8989,1.8989,0,0,1,1.7088-.0708l5.4553,3.1495c.438.253.3831.6947-.1227.9867l-5.4052,3.1208A1.9,1.9,0,0,1,306.7317,315.835Z" transform="translate(-16.7298 -70.5183)" fill="#06033e"/><path d="M315.1563,320.6989l-5.4553-3.15c-.438-.2529-.3831-.6946.1227-.9867l5.4053-3.1207a1.9,1.9,0,0,1,1.7088-.0708l5.4554,3.15c.438.2529.383.6946-.1228.9866l-5.4053,3.1208A1.8992,1.8992,0,0,1,315.1563,320.6989Z" transform="translate(-16.7298 -70.5183)" fill="#06033e"/><path d="M199.5949,282.3879l-16.0664-9.2759c-.438-.2529-.3832-.6947.1226-.9867l5.4053-3.1206a1.9,1.9,0,0,1,1.709-.0709l16.0663,9.2759c.438.2529.3831.6947-.1227.9867l-5.4053,3.1206A1.8992,1.8992,0,0,1,199.5949,282.3879Z" transform="translate(-16.7298 -70.5183)" fill="#06033e"/><path d="M303.0929,342.1426l-16.0663-9.2759c-.438-.2529-.3831-.6946.1227-.9866l5.4053-3.1208a1.8992,1.8992,0,0,1,1.7088-.0708l16.0664,9.2759c.438.2529.383.6946-.1226.9866l-5.4054,3.1208A1.9,1.9,0,0,1,303.0929,342.1426Z" transform="translate(-16.7298 -70.5183)" fill="#06033e"/><path d="M269.4018,333.4349l-5.4552-3.15c-.438-.2529-.3831-.6946.1226-.9866l6.4392-3.7176a1.8991,1.8991,0,0,1,1.7089-.0708l5.4552,3.15c.438.253.383.6947-.1226.9867l-6.4392,3.7176A1.8994,1.8994,0,0,1,269.4018,333.4349Z" transform="translate(-16.7298 -70.5183)" fill="#06033e"/><path d="M208.2223,298.1129l-8.7245-5.0371c-.438-.2529-.3831-.6947.1227-.9867l6.439-3.7175a1.9,1.9,0,0,1,1.7089-.071l8.7245,5.0372c.4381.2529.3832.6946-.1226.9866l-6.4392,3.7177A1.9,1.9,0,0,1,208.2223,298.1129Z" transform="translate(-16.7298 -70.5183)" fill="#06033e"/><path d="M261.2846,328.7484l-8.7244-5.0371c-.4381-.2528-.3832-.6945.1226-.9866l6.4391-3.7176a1.8992,1.8992,0,0,1,1.7088-.0708l8.7246,5.037c.438.253.3831.6947-.1227.9867l-6.4391,3.7176A1.8994,1.8994,0,0,1,261.2846,328.7484Z" transform="translate(-16.7298 -70.5183)" fill="#06033e"/><path d="M220.3771,305.1305l-8.7244-5.0371c-.438-.2529-.3831-.6946.1226-.9866l6.4391-3.7177a1.9,1.9,0,0,1,1.709-.0708l8.7244,5.0371c.438.2529.3831.6947-.1227.9867L222.086,305.06A1.8994,1.8994,0,0,1,220.3771,305.1305Z" transform="translate(-16.7298 -70.5183)" fill="#06033e"/><path d="M219.9824,295.3524l37.9317,21.9a.5194.5194,0,0,1,0,.9841l-6.5662,3.7909a1.8835,1.8835,0,0,1-1.7045,0l-37.9317-21.9Z" transform="translate(-16.7298 -70.5183)" fill="#06033e"/><path d="M292.9472,342.2538l6.0767,3.5083c.359.2072.3139.5694-.1006.8087l-2.6341,1.5208a1.5572,1.5572,0,0,1-1.4007.0581l-6.0766-3.5085c-.359-.2071-.314-.5693.1006-.8086l2.634-1.5207A1.5566,1.5566,0,0,1,292.9472,342.2538Z" transform="translate(-16.7298 -70.5183)" fill="#06033e"/><path d="M284.4528,337.35l6.0766,3.5083c.359.2073.314.5694-.1005.8088l-2.6342,1.5207a1.5569,1.5569,0,0,1-1.4007.0581l-6.0765-3.5084c-.359-.2073-.3141-.5693.1005-.8087l2.6341-1.5208A1.5569,1.5569,0,0,1,284.4528,337.35Z" transform="translate(-16.7298 -70.5183)" fill="#06033e"/><path d="M276.0281,332.4855l6.0767,3.5084c.359.2073.314.5693-.1006.8087l-2.634,1.5208a1.5569,1.5569,0,0,1-1.4007.058l-6.0766-3.5083c-.3591-.2073-.3141-.5693.1005-.8088l2.634-1.5207A1.5569,1.5569,0,0,1,276.0281,332.4855Z" transform="translate(-16.7298 -70.5183)" fill="#06033e"/><path d="M289.105,334.6636l6.0766,3.5083c.3591.2072.314.5693-.1005.8086l-2.6341,1.5209a1.5572,1.5572,0,0,1-1.4007.058l-6.0766-3.5083c-.3591-.2073-.314-.5694.1005-.8087l2.6341-1.5208A1.5563,1.5563,0,0,1,289.105,334.6636Z" transform="translate(-16.7298 -70.5183)" fill="#06033e"/></g><g opacity="0.4"><path d="M179.6793,281.6336l-5.4553-3.15c-.438-.2528-.3831-.6946.1227-.9866l6.4391-3.7175a1.8994,1.8994,0,0,1,1.7089-.071l5.4552,3.15c.4381.2528.3832.6946-.1226.9866l-6.4392,3.7176A1.8992,1.8992,0,0,1,179.6793,281.6336Z" transform="translate(-16.7298 -70.5183)" fill="#06033e"/><path d="M188.1038,286.4975l-5.4552-3.15c-.4381-.2529-.3832-.6947.1226-.9867l6.4392-3.7175a1.8989,1.8989,0,0,1,1.7088-.0709l5.4553,3.15c.438.2529.3831.6947-.1227.9867l-6.4391,3.7175A1.8991,1.8991,0,0,1,188.1038,286.4975Z" transform="translate(-16.7298 -70.5183)" fill="#06033e"/><path d="M196.5285,291.3615l-5.4554-3.15c-.438-.2528-.383-.6946.1228-.9866l6.4391-3.7176a1.8992,1.8992,0,0,1,1.7088-.0709l5.4553,3.15c.438.2528.3831.6946-.1227.9866l-6.439,3.7175A1.8994,1.8994,0,0,1,196.5285,291.3615Z" transform="translate(-16.7298 -70.5183)" fill="#06033e"/><path d="M208.18,287.3445l-5.4553-3.1495c-.438-.2528-.383-.6946.1228-.9866l5.4052-3.1207a1.8994,1.8994,0,0,1,1.7089-.0709l5.4553,3.15c.438.2529.383.6947-.1227.9867l-5.4054,3.1206A1.8989,1.8989,0,0,1,208.18,287.3445Z" transform="translate(-16.7298 -70.5183)" fill="#06033e"/><path d="M216.6047,292.2085l-5.4552-3.15c-.4382-.2528-.3832-.6946.1226-.9866l5.4053-3.1207a1.9,1.9,0,0,1,1.7089-.0709l5.4552,3.15c.438.2528.3831.6946-.1226.9866l-5.4053,3.1207A1.8994,1.8994,0,0,1,216.6047,292.2085Z" transform="translate(-16.7298 -70.5183)" fill="#06033e"/><path d="M225.0293,297.0725l-5.4553-3.15c-.438-.2529-.3831-.6947.1227-.9867l5.4053-3.1206a1.9,1.9,0,0,1,1.7088-.071l5.4553,3.15c.438.2528.3831.6946-.1227.9866l-5.4053,3.1207A1.8992,1.8992,0,0,1,225.0293,297.0725Z" transform="translate(-16.7298 -70.5183)" fill="#06033e"/><path d="M233.4539,301.9365l-5.4553-3.15c-.438-.2528-.3831-.6946.1227-.9866l5.4052-3.1207a1.8991,1.8991,0,0,1,1.7089-.0708l5.4553,3.1495c.438.2529.3831.6947-.1227.9867l-5.4053,3.1206A1.9,1.9,0,0,1,233.4539,301.9365Z" transform="translate(-16.7298 -70.5183)" fill="#06033e"/><path d="M241.8784,306.8l-5.4552-3.15c-.4381-.2529-.3832-.6947.1226-.9867l5.4053-3.1207a1.9,1.9,0,0,1,1.709-.0708l5.4552,3.15c.438.2529.383.6946-.1227.9866l-5.4053,3.1207A1.8994,1.8994,0,0,1,241.8784,306.8Z" transform="translate(-16.7298 -70.5183)" fill="#06033e"/><path d="M250.3031,311.6643l-5.4554-3.15c-.438-.2529-.383-.6947.1228-.9866l5.4053-3.1207a1.8989,1.8989,0,0,1,1.7088-.0708l5.4553,3.15c.438.253.383.6946-.1227.9866l-5.4052,3.1207A1.8991,1.8991,0,0,1,250.3031,311.6643Z" transform="translate(-16.7298 -70.5183)" fill="#06033e"/><path d="M258.7277,316.5283l-5.4553-3.15c-.438-.2528-.3831-.6946.1227-.9866l5.4052-3.1207a1.8991,1.8991,0,0,1,1.7089-.0708l5.4553,3.15c.438.253.3831.6947-.1227.9867l-5.4053,3.1207A1.8992,1.8992,0,0,1,258.7277,316.5283Z" transform="translate(-16.7298 -70.5183)" fill="#06033e"/><path d="M267.1522,321.3922l-5.4552-3.15c-.438-.2529-.3831-.6947.1226-.9867l5.4053-3.1207a1.8994,1.8994,0,0,1,1.7089-.0708l5.4552,3.15c.438.2529.3831.6946-.1226.9866l-5.4053,3.1208A1.8994,1.8994,0,0,1,267.1522,321.3922Z" transform="translate(-16.7298 -70.5183)" fill="#06033e"/><path d="M275.5768,326.2562l-5.4553-3.15c-.438-.2528-.3831-.6946.1227-.9866l5.4053-3.1207a1.8989,1.8989,0,0,1,1.7088-.0708l5.4554,3.1495c.438.253.383.6947-.1228.9866l-5.4052,3.1208A1.9,1.9,0,0,1,275.5768,326.2562Z" transform="translate(-16.7298 -70.5183)" fill="#06033e"/><path d="M284.0014,331.12l-5.4553-3.15c-.438-.2528-.383-.6946.1228-.9866l5.4051-3.1207a1.9,1.9,0,0,1,1.709-.0708l5.4553,3.1495c.438.253.383.6947-.1228.9867l-5.4053,3.1208A1.9,1.9,0,0,1,284.0014,331.12Z" transform="translate(-16.7298 -70.5183)" fill="#06033e"/><path d="M220.5932,285.0418l-5.4552-3.15c-.438-.253-.3831-.6947.1226-.9867l5.4053-3.1208a1.9,1.9,0,0,1,1.7089-.0708l5.4552,3.15c.438.2528.3831.6946-.1226.9866l-5.4053,3.1207A1.8991,1.8991,0,0,1,220.5932,285.0418Z" transform="translate(-16.7298 -70.5183)" fill="#06033e"/><path d="M212.0429,280.1053l-5.4553-3.15c-.438-.2529-.3831-.6946.1227-.9866l5.4052-3.1208a1.8994,1.8994,0,0,1,1.7089-.0708l5.4553,3.15c.438.2529.3831.6947-.1227.9867l-5.4053,3.1206A1.8992,1.8992,0,0,1,212.0429,280.1053Z" transform="translate(-16.7298 -70.5183)" fill="#06033e"/><path d="M203.4785,275.1607l-11.7492-6.7834c-.438-.2529-.3831-.6947.1227-.9867l5.4052-3.1207a1.9,1.9,0,0,1,1.7089-.0709l11.7493,6.7835c.438.2529.383.6947-.1226.9867l-5.4053,3.1206A1.9,1.9,0,0,1,203.4785,275.1607Z" transform="translate(-16.7298 -70.5183)" fill="#06033e"/><path d="M209.4649,269.1474l-9.5347-5.5049c-.4381-.2529-.3832-.6946.1226-.9866l5.4053-3.1208a1.8994,1.8994,0,0,1,1.7089-.0708l9.5348,5.505c.438.2528.383.6946-.1226.9866l-5.4054,3.1207A1.8991,1.8991,0,0,1,209.4649,269.1474Z" transform="translate(-16.7298 -70.5183)" fill="#06033e"/><path d="M229.0178,289.9057l-5.4553-3.15c-.438-.253-.3831-.6946.1227-.9866l5.4053-3.1208a1.9,1.9,0,0,1,1.7088-.0709l5.4553,3.15c.438.2528.3831.6946-.1227.9866l-5.4052,3.1207A1.8991,1.8991,0,0,1,229.0178,289.9057Z" transform="translate(-16.7298 -70.5183)" fill="#06033e"/><path d="M237.4424,294.77l-5.4553-3.15c-.438-.2529-.3831-.6946.1227-.9866l5.4052-3.1208a1.8994,1.8994,0,0,1,1.7089-.0708l5.4553,3.15c.438.2529.3831.6947-.1227.9867l-5.4053,3.1207A1.8992,1.8992,0,0,1,237.4424,294.77Z" transform="translate(-16.7298 -70.5183)" fill="#06033e"/><path d="M245.8669,299.6336l-5.4552-3.1495c-.438-.253-.383-.6947.1226-.9867l5.4053-3.1207a1.9,1.9,0,0,1,1.709-.0709l5.4552,3.15c.438.2528.383.6946-.1227.9866l-5.4053,3.1207A1.8991,1.8991,0,0,1,245.8669,299.6336Z" transform="translate(-16.7298 -70.5183)" fill="#06033e"/><path d="M254.2916,304.4975l-5.4553-3.1495c-.4381-.253-.3831-.6946.1227-.9866l5.4053-3.1207a1.8989,1.8989,0,0,1,1.7088-.0709l5.4553,3.15c.438.2529.3831.6947-.1227.9866l-5.4052,3.1207A1.8991,1.8991,0,0,1,254.2916,304.4975Z" transform="translate(-16.7298 -70.5183)" fill="#06033e"/><path d="M262.7162,309.3615l-5.4553-3.15c-.438-.2529-.3831-.6946.1227-.9866l5.4053-3.1207a1.8992,1.8992,0,0,1,1.7088-.0709l5.4553,3.15c.438.2529.3831.6947-.1227.9867l-5.4053,3.1207A1.8992,1.8992,0,0,1,262.7162,309.3615Z" transform="translate(-16.7298 -70.5183)" fill="#06033e"/><path d="M271.1407,314.2254l-5.4552-3.1495c-.438-.2529-.3831-.6947.1226-.9867l5.4053-3.1206a1.9,1.9,0,0,1,1.7089-.071l5.4552,3.15c.4381.2528.3832.6946-.1226.9866l-5.4053,3.1207A1.8991,1.8991,0,0,1,271.1407,314.2254Z" transform="translate(-16.7298 -70.5183)" fill="#06033e"/><path d="M279.5653,319.0894l-5.4553-3.15c-.438-.2528-.3831-.6946.1227-.9866l5.4054-3.1207a1.899,1.899,0,0,1,1.7087-.0709l5.4554,3.15c.438.2529.383.6947-.1228.9867l-5.4052,3.1206A1.8994,1.8994,0,0,1,279.5653,319.0894Z" transform="translate(-16.7298 -70.5183)" fill="#06033e"/><path d="M287.99,323.9534l-5.4553-3.15c-.438-.2528-.383-.6946.1228-.9866l5.4053-3.1207a1.9,1.9,0,0,1,1.7088-.0709l5.4553,3.15c.438.2528.383.6946-.1227.9866l-5.4054,3.1207A1.9,1.9,0,0,1,287.99,323.9534Z" transform="translate(-16.7298 -70.5183)" fill="#06033e"/><path d="M296.4146,328.8173l-5.4553-3.15c-.438-.2529-.3831-.6947.1227-.9867l5.4052-3.1206a1.8991,1.8991,0,0,1,1.7089-.0708l5.4553,3.1495c.438.2528.3831.6946-.1227.9866l-5.4053,3.1207A1.8992,1.8992,0,0,1,296.4146,328.8173Z" transform="translate(-16.7298 -70.5183)" fill="#06033e"/><path d="M311.3916,337.4643l-11.903-6.8722c-.438-.2529-.3831-.6946.1227-.9866l5.4053-3.1208a1.9,1.9,0,0,1,1.7088-.0708l11.903,6.8722c.438.2529.3831.6946-.1227.9867l-5.4052,3.1206A1.8994,1.8994,0,0,1,311.3916,337.4643Z" transform="translate(-16.7298 -70.5183)" fill="#06033e"/><path d="M327.7932,327.9948l-10.0465-5.8c-.4381-.253-.3832-.6947.1226-.9867l5.4053-3.1207a1.9,1.9,0,0,1,1.7089-.0709l10.0465,5.8c.438.2529.3831.6946-.1227.9866l-5.4053,3.1208A1.8992,1.8992,0,0,1,327.7932,327.9948Z" transform="translate(-16.7298 -70.5183)" fill="#06033e"/><path d="M243.771,288.9541l-5.4552-3.15c-.4381-.2529-.3831-.6946.1227-.9867l5.4053-3.1207a1.8994,1.8994,0,0,1,1.7089-.0708l5.4552,3.15c.438.2529.383.6946-.1226.9866l-5.4053,3.1208A1.9,1.9,0,0,1,243.771,288.9541Z" transform="translate(-16.7298 -70.5183)" fill="#06033e"/><path d="M235.1369,283.9691l-5.4552-3.15c-.438-.253-.3831-.6947.1226-.9867l5.4053-3.1207a1.9,1.9,0,0,1,1.7089-.0709l5.4552,3.15c.438.2528.3831.6946-.1226.9866l-5.4053,3.1207A1.8991,1.8991,0,0,1,235.1369,283.9691Z" transform="translate(-16.7298 -70.5183)" fill="#06033e"/><path d="M226.5027,278.9843l-5.4552-3.15c-.438-.2528-.3831-.6945.1226-.9866l5.4053-3.1207a1.8991,1.8991,0,0,1,1.7089-.0708l5.4552,3.1495c.4381.253.3832.6946-.1226.9866l-5.4053,3.1208A1.9,1.9,0,0,1,226.5027,278.9843Z" transform="translate(-16.7298 -70.5183)" fill="#06033e"/><path d="M217.8686,273.9993l-5.4553-3.15c-.438-.2529-.383-.6946.1228-.9866l5.4051-3.1208a1.9,1.9,0,0,1,1.709-.0708l5.4553,3.15c.438.2529.383.6946-.1228.9867l-5.4053,3.1206A1.8992,1.8992,0,0,1,217.8686,273.9993Z" transform="translate(-16.7298 -70.5183)" fill="#06033e"/><path d="M252.1957,293.8181l-5.4554-3.15c-.4379-.2528-.383-.6945.1228-.9865l5.4053-3.1208a1.8989,1.8989,0,0,1,1.7088-.0708l5.4553,3.1495c.438.253.3831.6946-.1227.9866l-5.4053,3.1208A1.9,1.9,0,0,1,252.1957,293.8181Z" transform="translate(-16.7298 -70.5183)" fill="#06033e"/><path d="M260.62,298.682l-5.4553-3.15c-.438-.2528-.3831-.6945.1227-.9865l5.4052-3.1208a1.8991,1.8991,0,0,1,1.7089-.0708l5.4553,3.1495c.438.253.3831.6947-.1227.9867l-5.4053,3.1208A1.9,1.9,0,0,1,260.62,298.682Z" transform="translate(-16.7298 -70.5183)" fill="#06033e"/><path d="M269.0448,303.5459l-5.4552-3.15c-.438-.2529-.3831-.6946.1226-.9866l5.4053-3.1207a1.8994,1.8994,0,0,1,1.7089-.0709l5.4552,3.15c.438.2529.3831.6946-.1226.9866l-5.4053,3.1208A1.8994,1.8994,0,0,1,269.0448,303.5459Z" transform="translate(-16.7298 -70.5183)" fill="#06033e"/><path d="M277.4694,308.41l-5.4553-3.15c-.438-.2528-.383-.6945.1227-.9865l5.4053-3.1208a1.8994,1.8994,0,0,1,1.7089-.0708l5.4553,3.1495c.438.253.383.6947-.1228.9867l-5.4052,3.1207A1.9,1.9,0,0,1,277.4694,308.41Z" transform="translate(-16.7298 -70.5183)" fill="#06033e"/><path d="M285.8941,313.2738l-5.4554-3.15c-.438-.2528-.383-.6945.1228-.9865l5.4052-3.1208a1.9,1.9,0,0,1,1.7089-.0708l5.4553,3.15c.438.2529.3831.6946-.1227.9866l-5.4053,3.1208A1.9,1.9,0,0,1,285.8941,313.2738Z" transform="translate(-16.7298 -70.5183)" fill="#06033e"/><path d="M294.3186,318.1377l-5.4552-3.15c-.438-.2529-.3831-.6945.1226-.9865l5.4053-3.1208A1.9,1.9,0,0,1,296.1,310.81l5.4552,3.15c.438.2528.3831.6945-.1226.9865l-5.4053,3.1208A1.8994,1.8994,0,0,1,294.3186,318.1377Z" transform="translate(-16.7298 -70.5183)" fill="#06033e"/><path d="M302.7432,323.0017l-5.4553-3.15c-.438-.2528-.3831-.6945.1227-.9865l5.4053-3.1208a1.8992,1.8992,0,0,1,1.7088-.0708l5.4553,3.15c.438.2529.3831.6946-.1227.9866l-5.4052,3.1208A1.9,1.9,0,0,1,302.7432,323.0017Z" transform="translate(-16.7298 -70.5183)" fill="#06033e"/><path d="M311.1678,327.8656l-5.4553-3.15c-.438-.2529-.3831-.6946.1227-.9866l5.4053-3.1208a1.9,1.9,0,0,1,1.7088-.0708l5.4554,3.15c.438.2528.383.6945-.1228.9865l-5.4053,3.1208A1.8992,1.8992,0,0,1,311.1678,327.8656Z" transform="translate(-16.7298 -70.5183)" fill="#06033e"/><path d="M319.5923,332.73l-5.4552-3.1495c-.438-.2529-.383-.6946.1226-.9866l5.4054-3.1208a1.8994,1.8994,0,0,1,1.7089-.0708l5.4552,3.15c.4381.2529.3832.6945-.1226.9865l-5.4054,3.1208A1.8994,1.8994,0,0,1,319.5923,332.73Z" transform="translate(-16.7298 -70.5183)" fill="#06033e"/><path d="M239.335,276.9235l-5.4553-3.15c-.438-.2528-.3831-.6946.1227-.9866l5.4052-3.1207a1.8991,1.8991,0,0,1,1.7089-.0708l5.4554,3.1495c.438.253.383.6947-.1228.9867l-5.4053,3.1207A1.9,1.9,0,0,1,239.335,276.9235Z" transform="translate(-16.7298 -70.5183)" fill="#06033e"/><path d="M230.9524,272.0837l-5.4554-3.15c-.438-.2529-.383-.6946.1228-.9866l5.4052-3.1208a1.8994,1.8994,0,0,1,1.7089-.0708l5.4553,3.15c.438.2529.3831.6946-.1227.9866l-5.4053,3.1208A1.8992,1.8992,0,0,1,230.9524,272.0837Z" transform="translate(-16.7298 -70.5183)" fill="#06033e"/><path d="M222.57,267.2439l-5.4553-3.1495c-.438-.253-.3831-.6946.1227-.9866l5.4052-3.1208a1.8994,1.8994,0,0,1,1.7089-.0708l5.4553,3.15c.438.2529.3831.6945-.1227.9865l-5.4053,3.1208A1.8989,1.8989,0,0,1,222.57,267.2439Z" transform="translate(-16.7298 -70.5183)" fill="#06033e"/><path d="M214.187,262.4042l-5.4553-3.15c-.438-.2529-.3831-.6946.1227-.9866l5.4052-3.1207a1.8991,1.8991,0,0,1,1.7089-.0709l5.4552,3.15c.4381.2529.3832.6947-.1226.9867l-5.4053,3.1207A1.8992,1.8992,0,0,1,214.187,262.4042Z" transform="translate(-16.7298 -70.5183)" fill="#06033e"/><path d="M222.8069,257.4275l-5.4552-3.15c-.4382-.2529-.3832-.6946.1226-.9866l1.7869-1.0316a1.9,1.9,0,0,1,1.7089-.071l5.4552,3.15c.438.2528.383.6946-.1226.9866l-1.7869,1.0316A1.8994,1.8994,0,0,1,222.8069,257.4275Z" transform="translate(-16.7298 -70.5183)" fill="#06033e"/><path d="M233.7462,263.7433l-5.4552-3.1495c-.438-.253-.383-.6946.1227-.9866l1.7868-1.0317a1.9,1.9,0,0,1,1.709-.0709l5.4552,3.15c.438.2528.383.6946-.1227.9866l-1.7868,1.0316A1.8993,1.8993,0,0,1,233.7462,263.7433Z" transform="translate(-16.7298 -70.5183)" fill="#06033e"/><path d="M242.094,268.563l-5.4552-3.15c-.4381-.2528-.3832-.6946.1226-.9866l1.7869-1.0316a1.9,1.9,0,0,1,1.7089-.0709l5.4552,3.15c.438.2529.3831.6946-.1226.9866l-1.7869,1.0318A1.9,1.9,0,0,1,242.094,268.563Z" transform="translate(-16.7298 -70.5183)" fill="#06033e"/><path d="M250.4418,273.3825l-5.4553-3.15c-.438-.2529-.3831-.6946.1227-.9866l1.7869-1.0316a1.8989,1.8989,0,0,1,1.7088-.0709l5.4553,3.15c.438.2529.3831.6947-.1227.9867l-1.7868,1.0316A1.8994,1.8994,0,0,1,250.4418,273.3825Z" transform="translate(-16.7298 -70.5183)" fill="#06033e"/><path d="M258.7895,278.2021l-5.4553-3.15c-.438-.2529-.383-.6947.1228-.9867l1.7868-1.0316a1.8989,1.8989,0,0,1,1.7088-.0708l5.4554,3.15c.438.253.383.6947-.1228.9867l-1.7869,1.0317A1.8992,1.8992,0,0,1,258.7895,278.2021Z" transform="translate(-16.7298 -70.5183)" fill="#06033e"/><path d="M305.3938,305.1091l-5.4553-3.15c-.438-.2528-.3831-.6946.1227-.9866l1.7868-1.0316a1.9,1.9,0,0,1,1.7089-.0709l5.4553,3.15c.438.2529.3831.6946-.1227.9866l-1.7869,1.0317A1.9,1.9,0,0,1,305.3938,305.1091Z" transform="translate(-16.7298 -70.5183)" fill="#06033e"/><path d="M313.7414,309.9286l-5.4552-3.15c-.438-.2529-.383-.6946.1226-.9866l1.7869-1.0316a1.8991,1.8991,0,0,1,1.7089-.0709l5.4552,3.15c.4382.2529.3832.6947-.1226.9867l-1.7869,1.0316A1.8994,1.8994,0,0,1,313.7414,309.9286Z" transform="translate(-16.7298 -70.5183)" fill="#06033e"/><path d="M322.0892,314.7482l-5.4552-3.15c-.438-.2529-.3831-.6947.1226-.9867l1.7869-1.0316a1.9,1.9,0,0,1,1.7089-.0708l5.4552,3.1495c.438.253.3831.6947-.1226.9867l-1.7869,1.0317A1.8994,1.8994,0,0,1,322.0892,314.7482Z" transform="translate(-16.7298 -70.5183)" fill="#06033e"/><path d="M330.437,319.5677l-5.4552-3.1495c-.4382-.253-.3832-.6946.1226-.9866l1.7869-1.0317a1.8994,1.8994,0,0,1,1.7089-.0709l5.4552,3.15c.438.2528.3831.6946-.1226.9866l-1.7869,1.0316A1.8991,1.8991,0,0,1,330.437,319.5677Z" transform="translate(-16.7298 -70.5183)" fill="#06033e"/><path d="M247.76,281.7874l-5.4552-3.15c-.4379-.2529-.383-.6947.1227-.9867l5.4053-3.1206a1.8994,1.8994,0,0,1,1.7089-.0709l5.4552,3.15c.438.2529.383.6946-.1226.9866l-5.4053,3.1207A1.8993,1.8993,0,0,1,247.76,281.7874Z" transform="translate(-16.7298 -70.5183)" fill="#06033e"/><path d="M256.1842,286.6514l-5.4553-3.15c-.438-.2528-.3831-.6946.1227-.9866l5.4053-3.1207a1.8989,1.8989,0,0,1,1.7088-.0708l5.4553,3.1495c.438.253.3831.6947-.1227.9867l-5.4052,3.1206A1.8994,1.8994,0,0,1,256.1842,286.6514Z" transform="translate(-16.7298 -70.5183)" fill="#06033e"/><path d="M264.6088,291.5153l-5.4553-3.15c-.438-.2528-.3831-.6946.1227-.9866l5.4052-3.1207a1.8994,1.8994,0,0,1,1.7089-.0708l5.4553,3.15c.438.2529.3831.6946-.1227.9866l-5.4053,3.1208A1.9,1.9,0,0,1,264.6088,291.5153Z" transform="translate(-16.7298 -70.5183)" fill="#06033e"/><path d="M273.0333,296.3792l-5.4552-3.15c-.438-.2529-.3831-.6947.1226-.9867l5.4053-3.1206a1.8994,1.8994,0,0,1,1.7089-.0709l5.4553,3.15c.438.2529.3831.6946-.1227.9866l-5.4053,3.1208A1.8994,1.8994,0,0,1,273.0333,296.3792Z" transform="translate(-16.7298 -70.5183)" fill="#06033e"/><path d="M281.4579,301.2432l-5.4553-3.15c-.438-.2528-.383-.6946.1227-.9866l5.4054-3.1207a1.8989,1.8989,0,0,1,1.7088-.0708l5.4553,3.15c.438.253.383.6947-.1228.9867l-5.4052,3.1208A1.9,1.9,0,0,1,281.4579,301.2432Z" transform="translate(-16.7298 -70.5183)" fill="#06033e"/><path d="M289.8826,306.1071l-5.4554-3.15c-.438-.2529-.383-.6947.1228-.9867l5.4053-3.1207a1.8992,1.8992,0,0,1,1.7088-.0708l5.4553,3.15c.438.2529.3831.6946-.1227.9866l-5.4053,3.1208A1.8992,1.8992,0,0,1,289.8826,306.1071Z" transform="translate(-16.7298 -70.5183)" fill="#06033e"/><path d="M298.3071,310.971l-5.4552-3.15c-.438-.2528-.3831-.6945.1226-.9866l5.4053-3.1207a1.8991,1.8991,0,0,1,1.7089-.0708l5.4552,3.1495c.4381.253.3832.6946-.1226.9866L300.016,310.9A1.8994,1.8994,0,0,1,298.3071,310.971Z" transform="translate(-16.7298 -70.5183)" fill="#06033e"/><path d="M306.7317,315.835l-5.4552-3.15c-.4381-.2528-.3832-.6945.1226-.9866l5.4053-3.1207a1.8989,1.8989,0,0,1,1.7088-.0708l5.4553,3.1495c.438.253.3831.6947-.1227.9867l-5.4052,3.1208A1.9,1.9,0,0,1,306.7317,315.835Z" transform="translate(-16.7298 -70.5183)" fill="#06033e"/><path d="M315.1563,320.6989l-5.4553-3.15c-.438-.2529-.3831-.6946.1227-.9867l5.4053-3.1207a1.9,1.9,0,0,1,1.7088-.0708l5.4554,3.15c.438.2529.383.6946-.1228.9866l-5.4053,3.1208A1.8992,1.8992,0,0,1,315.1563,320.6989Z" transform="translate(-16.7298 -70.5183)" fill="#06033e"/><path d="M199.5949,282.3879l-16.0664-9.2759c-.438-.2529-.3832-.6947.1226-.9867l5.4053-3.1206a1.9,1.9,0,0,1,1.709-.0709l16.0663,9.2759c.438.2529.3831.6947-.1227.9867l-5.4053,3.1206A1.8992,1.8992,0,0,1,199.5949,282.3879Z" transform="translate(-16.7298 -70.5183)" fill="#06033e"/><path d="M303.0929,342.1426l-16.0663-9.2759c-.438-.2529-.3831-.6946.1227-.9866l5.4053-3.1208a1.8992,1.8992,0,0,1,1.7088-.0708l16.0664,9.2759c.438.2529.383.6946-.1226.9866l-5.4054,3.1208A1.9,1.9,0,0,1,303.0929,342.1426Z" transform="translate(-16.7298 -70.5183)" fill="#06033e"/><path d="M269.4018,333.4349l-5.4552-3.15c-.438-.2529-.3831-.6946.1226-.9866l6.4392-3.7176a1.8991,1.8991,0,0,1,1.7089-.0708l5.4552,3.15c.438.253.383.6947-.1226.9867l-6.4392,3.7176A1.8994,1.8994,0,0,1,269.4018,333.4349Z" transform="translate(-16.7298 -70.5183)" fill="#06033e"/><path d="M208.2223,298.1129l-8.7245-5.0371c-.438-.2529-.3831-.6947.1227-.9867l6.439-3.7175a1.9,1.9,0,0,1,1.7089-.071l8.7245,5.0372c.4381.2529.3832.6946-.1226.9866l-6.4392,3.7177A1.9,1.9,0,0,1,208.2223,298.1129Z" transform="translate(-16.7298 -70.5183)" fill="#06033e"/><path d="M261.2846,328.7484l-8.7244-5.0371c-.4381-.2528-.3832-.6945.1226-.9866l6.4391-3.7176a1.8992,1.8992,0,0,1,1.7088-.0708l8.7246,5.037c.438.253.3831.6947-.1227.9867l-6.4391,3.7176A1.8994,1.8994,0,0,1,261.2846,328.7484Z" transform="translate(-16.7298 -70.5183)" fill="#06033e"/><path d="M220.3771,305.1305l-8.7244-5.0371c-.438-.2529-.3831-.6946.1226-.9866l6.4391-3.7177a1.9,1.9,0,0,1,1.709-.0708l8.7244,5.0371c.438.2529.3831.6947-.1227.9867L222.086,305.06A1.8994,1.8994,0,0,1,220.3771,305.1305Z" transform="translate(-16.7298 -70.5183)" fill="#06033e"/><path d="M219.9824,295.3524l37.9317,21.9a.5194.5194,0,0,1,0,.9841l-6.5662,3.7909a1.8835,1.8835,0,0,1-1.7045,0l-37.9317-21.9Z" transform="translate(-16.7298 -70.5183)" fill="#06033e"/><path d="M292.9472,342.2538l6.0767,3.5083c.359.2072.3139.5694-.1006.8087l-2.6341,1.5208a1.5572,1.5572,0,0,1-1.4007.0581l-6.0766-3.5085c-.359-.2071-.314-.5693.1006-.8086l2.634-1.5207A1.5566,1.5566,0,0,1,292.9472,342.2538Z" transform="translate(-16.7298 -70.5183)" fill="#06033e"/><path d="M284.4528,337.35l6.0766,3.5083c.359.2073.314.5694-.1005.8088l-2.6342,1.5207a1.5569,1.5569,0,0,1-1.4007.0581l-6.0765-3.5084c-.359-.2073-.3141-.5693.1005-.8087l2.6341-1.5208A1.5569,1.5569,0,0,1,284.4528,337.35Z" transform="translate(-16.7298 -70.5183)" fill="#06033e"/><path d="M276.0281,332.4855l6.0767,3.5084c.359.2073.314.5693-.1006.8087l-2.634,1.5208a1.5569,1.5569,0,0,1-1.4007.058l-6.0766-3.5083c-.3591-.2073-.3141-.5693.1005-.8088l2.634-1.5207A1.5569,1.5569,0,0,1,276.0281,332.4855Z" transform="translate(-16.7298 -70.5183)" fill="#06033e"/><path d="M289.105,334.6636l6.0766,3.5083c.3591.2072.314.5693-.1005.8086l-2.6341,1.5209a1.5572,1.5572,0,0,1-1.4007.058l-6.0766-3.5083c-.3591-.2073-.314-.5694.1005-.8087l2.6341-1.5208A1.5563,1.5563,0,0,1,289.105,334.6636Z" transform="translate(-16.7298 -70.5183)" fill="#06033e"/></g><path d="M378.2654,324.8236,217.318,231.9005a7.1284,7.1284,0,0,1-2.95-7.9521L250.7652,105.772c.9015-2.9306,3.684-4.1219,6.2149-2.6606l160.9474,92.923a7.1281,7.1281,0,0,1,2.95,7.9521L384.48,322.1628C383.5788,325.0935,380.7963,326.2847,378.2654,324.8236Z" transform="translate(-16.7298 -70.5183)" fill="url(#d)"/><path d="M376.7477,320.6852,220.6376,230.48a6.8215,6.8215,0,0,1-2.8233-7.61l34.7978-112.9758c.8626-2.8045,3.5254-3.9445,5.9474-2.5462l156.11,90.2051a6.8219,6.8219,0,0,1,2.8233,7.61L382.6952,318.1389C381.8325,320.9435,379.17,322.0834,376.7477,320.6852Z" transform="translate(-16.7298 -70.5183)" fill="url(#e)"/><path d="M376.7477,320.6852,220.6376,230.48a6.8215,6.8215,0,0,1-2.8233-7.61l34.7978-112.9758c.8626-2.8045,3.5254-3.9445,5.9474-2.5462l156.11,90.2051a6.8219,6.8219,0,0,1,2.8233,7.61L382.6952,318.1389C381.8325,320.9435,379.17,322.0834,376.7477,320.6852Z" transform="translate(-16.7298 -70.5183)" fill="#06033e" opacity="0.4"/><path d="M376.7477,320.6852,220.6376,230.48a6.8215,6.8215,0,0,1-2.8233-7.61l34.7978-112.9758c.8626-2.8045,3.5254-3.9445,5.9474-2.5462l156.11,90.2051a6.8219,6.8219,0,0,1,2.8233,7.61L382.6952,318.1389C381.8325,320.9435,379.17,322.0834,376.7477,320.6852Z" transform="translate(-16.7298 -70.5183)" fill="#06033e" opacity="0.4"/><path d="M368.3608,286.16,262.6824,225.1464a4.6806,4.6806,0,0,1-1.9371-5.2215L284.6439,142.33a2.7134,2.7134,0,0,1,4.0808-1.7471l105.6784,61.0135a4.68,4.68,0,0,1,1.9371,5.2214l-23.8987,77.5948A2.7133,2.7133,0,0,1,368.3608,286.16Z" transform="translate(-16.7298 -70.5183)" fill="#06033e" opacity="0.5"/><path d="M354.0824,288.0327,248.4039,227.0192a4.68,4.68,0,0,1-1.9371-5.2213l23.8987-77.5949a2.7131,2.7131,0,0,1,4.0806-1.747L380.1246,203.47a4.6806,4.6806,0,0,1,1.9371,5.2214l-23.8986,77.5949A2.7132,2.7132,0,0,1,354.0824,288.0327Z" transform="translate(-16.7298 -70.5183)" fill="url(#f)"/><g opacity="0.5"><path d="M354.0824,288.0327,248.4039,227.0192a4.68,4.68,0,0,1-1.9371-5.2213l23.8987-77.5949a2.7131,2.7131,0,0,1,4.0806-1.747L380.1246,203.47a4.6806,4.6806,0,0,1,1.9371,5.2214l-23.8986,77.5949A2.7132,2.7132,0,0,1,354.0824,288.0327Z" transform="translate(-16.7298 -70.5183)" fill="#06033e"/></g><path d="M380.1246,203.47,274.4461,142.456a2.6314,2.6314,0,0,0-2.9736.1013,2.8468,2.8468,0,0,1,1.526.3909l105.6787,61.0134a4.6811,4.6811,0,0,1,1.9369,5.2213l-23.8985,77.5949a3.1911,3.1911,0,0,1-1.1074,1.6457,2.7954,2.7954,0,0,0,2.5549-2.1379l23.8985-77.5948A4.68,4.68,0,0,0,380.1246,203.47Z" transform="translate(-16.7298 -70.5183)" fill="#fff"/><path d="M220.7973,351.3968a7.9482,7.9482,0,0,1-3.9156-.9177v.001l-42.34-24.4446a3.0585,3.0585,0,0,1-1.7394-2.6089,4.0014,4.0014,0,0,1,2.3348-3.2362l21.7941-12.5838c2.6635-1.5362,6.5716-1.6869,8.902-.3431L248.172,331.708a3.0606,3.0606,0,0,1,1.74,2.6091,4.0035,4.0035,0,0,1-2.3348,3.236l-21.7952,12.584A10.2093,10.2093,0,0,1,220.7973,351.3968Zm-18.86-43.8131a9.0781,9.0781,0,0,0-4.3942,1.0826l-21.7941,12.5828c-1.0958.6326-1.7251,1.4269-1.7251,2.1775a1.9322,1.9322,0,0,0,1.13,1.5492l42.34,24.4456c1.9207,1.1068,5.4354.9516,7.6773-.3441l21.7951-12.5828c1.0958-.6326,1.724-1.4258,1.724-2.1774a1.9323,1.9323,0,0,0-1.13-1.5493l-42.3394-24.4445A6.7206,6.7206,0,0,0,201.9368,307.5837Z" transform="translate(-16.7298 -70.5183)" fill="#06033e" opacity="0.4"/><path d="M300.186,183.1649l-6.5333-3.772a1.704,1.704,0,0,1-.7262-1.8787h0a.9672.9672,0,0,1,1.4689-.6113l6.5335,3.772a1.7039,1.7039,0,0,1,.7261,1.8787h0A.9673.9673,0,0,1,300.186,183.1649Z" transform="translate(-16.7298 -70.5183)" fill="#fff"/><path d="M315.7488,192.15l-9.6338-5.5621a1.7039,1.7039,0,0,1-.726-1.8786h0a.9671.9671,0,0,1,1.4689-.6113l9.6337,5.5619a1.7045,1.7045,0,0,1,.7262,1.8788h0A.9673.9673,0,0,1,315.7488,192.15Z" transform="translate(-16.7298 -70.5183)" fill="#fff"/><path d="M287.01,212.2525l-6.5333-3.7722a1.7038,1.7038,0,0,1-.7262-1.8786h0a.9673.9673,0,0,1,1.4689-.6114l6.5335,3.7721a1.7041,1.7041,0,0,1,.7261,1.8787h0A.9674.9674,0,0,1,287.01,212.2525Z" transform="translate(-16.7298 -70.5183)" fill="#fff"/><path d="M300.8829,220.2619,291.2492,214.7a1.7041,1.7041,0,0,1-.726-1.8788h0a.9672.9672,0,0,1,1.4689-.6113l9.6337,5.5621a1.7039,1.7039,0,0,1,.7261,1.8786h0A.9672.9672,0,0,1,300.8829,220.2619Z" transform="translate(-16.7298 -70.5183)" fill="#fff"/><path d="M280.6149,177.9814l-4.0813-2.3565a1.7039,1.7039,0,0,1-.7262-1.8787h0a.9672.9672,0,0,1,1.4689-.6113l4.0815,2.3564a1.7038,1.7038,0,0,1,.7261,1.8787h0A.9674.9674,0,0,1,280.6149,177.9814Z" transform="translate(-16.7298 -70.5183)" fill="#fff"/><path d="M292.8958,191.1875l-12.47-7.2a1.7037,1.7037,0,0,1-.7261-1.8786h0a.9672.9672,0,0,1,1.4689-.6114l12.47,7.2a1.7041,1.7041,0,0,1,.7261,1.8788h0A.9673.9673,0,0,1,292.8958,191.1875Z" transform="translate(-16.7298 -70.5183)" fill="#fff"/><path d="M281.3943,196.7786l-4.0814-2.3563a1.7043,1.7043,0,0,1-.7261-1.8788h0a.9673.9673,0,0,1,1.469-.6113l4.0813,2.3564a1.704,1.704,0,0,1,.7262,1.8787h0A.9672.9672,0,0,1,281.3943,196.7786Z" transform="translate(-16.7298 -70.5183)" fill="#fff"/><path d="M302.387,233.3619l-10.901-6.2938a1.7038,1.7038,0,0,1-.7262-1.8786h0a.9673.9673,0,0,1,1.4689-.6114l10.9012,6.2937a1.7041,1.7041,0,0,1,.726,1.8788h0A.9672.9672,0,0,1,302.387,233.3619Z" transform="translate(-16.7298 -70.5183)" fill="#fff"/><path d="M276.82,206.3691l-2.62-1.5125a1.704,1.704,0,0,1-.7262-1.8787h0a.9673.9673,0,0,1,1.4689-.6113l2.62,1.5125a1.7038,1.7038,0,0,1,.7261,1.8787h0A.9672.9672,0,0,1,276.82,206.3691Z" transform="translate(-16.7298 -70.5183)" fill="#fff"/><path d="M274.3408,217.1694l-3.2535-1.8784a1.7037,1.7037,0,0,1-.726-1.8786h0a.9672.9672,0,0,1,1.4689-.6113l3.2535,1.8784a1.7037,1.7037,0,0,1,.726,1.8786h0A.9672.9672,0,0,1,274.3408,217.1694Z" transform="translate(-16.7298 -70.5183)" fill="#fff"/><path d="M286.9975,224.4767l-8.5776-4.9522a1.704,1.704,0,0,1-.726-1.8787h0a.9672.9672,0,0,1,1.4689-.6113l8.5776,4.9522a1.7041,1.7041,0,0,1,.726,1.8788h0A.9672.9672,0,0,1,286.9975,224.4767Z" transform="translate(-16.7298 -70.5183)" fill="#fff"/><path d="M275.6982,224.0688l-6.1672-3.5605a1.7044,1.7044,0,0,1-.7262-1.8788h0a.9673.9673,0,0,1,1.469-.6113l6.1673,3.5606a1.704,1.704,0,0,1,.726,1.8787h0A.9671.9671,0,0,1,275.6982,224.0688Z" transform="translate(-16.7298 -70.5183)" fill="#fff"/><path d="M311.7393,238.7877l-3.9608-2.2867a1.704,1.704,0,0,1-.7261-1.8786h0a.9673.9673,0,0,1,1.469-.6114l3.9606,2.2867a1.7039,1.7039,0,0,1,.7262,1.8786h0A.9673.9673,0,0,1,311.7393,238.7877Z" transform="translate(-16.7298 -70.5183)" fill="#fff"/><path d="M296.5763,205.544,285.6752,199.25a1.704,1.704,0,0,1-.7261-1.8786h0a.9673.9673,0,0,1,1.469-.6114l10.901,6.2938a1.704,1.704,0,0,1,.7262,1.8786h0A.9673.9673,0,0,1,296.5763,205.544Z" transform="translate(-16.7298 -70.5183)" fill="#fff"/><path d="M297.8685,200.1743,278.8693,189.205a1.7042,1.7042,0,0,1-.7262-1.8787h0a.9674.9674,0,0,1,1.469-.6113l18.9993,10.9693a1.7039,1.7039,0,0,1,.7261,1.8786h0A.9674.9674,0,0,1,297.8685,200.1743Z" transform="translate(-16.7298 -70.5183)" fill="#e8975b"/><path d="M286.6576,205.9331l-10.9011-6.2937a1.7036,1.7036,0,0,1-.7261-1.8786h0a.9672.9672,0,0,1,1.4689-.6114L287.4,203.4431a1.7041,1.7041,0,0,1,.7261,1.8787h0A.9672.9672,0,0,1,286.6576,205.9331Z" transform="translate(-16.7298 -70.5183)" fill="#e8975b"/><path d="M304.8443,210.3176l-3.9606-2.2868a1.704,1.704,0,0,1-.7262-1.8786h0a.9673.9673,0,0,1,1.4689-.6114l3.9608,2.2867a1.704,1.704,0,0,1,.7261,1.8787h0A.9674.9674,0,0,1,304.8443,210.3176Z" transform="translate(-16.7298 -70.5183)" fill="#e8975b"/><path d="M345.1324,209.1148l-23.4546-13.5415a1.7045,1.7045,0,0,1-.7262-1.8788h0a.9673.9673,0,0,1,1.469-.6113l23.4546,13.5415a1.7038,1.7038,0,0,1,.7261,1.8787h0A.9673.9673,0,0,1,345.1324,209.1148Z" transform="translate(-16.7298 -70.5183)" fill="#e8975b"/><path d="M285.7476,217.6393l-13.1038-7.5655a1.7039,1.7039,0,0,1-.7262-1.8786h0a.9674.9674,0,0,1,1.469-.6115l13.1039,7.5656a1.7041,1.7041,0,0,1,.7261,1.8787h0A.9673.9673,0,0,1,285.7476,217.6393Z" transform="translate(-16.7298 -70.5183)" fill="#f8359e"/><path d="M287.7236,175.97l-9.6337-5.562a1.7038,1.7038,0,0,1-.7261-1.8787h0a.9674.9674,0,0,1,1.469-.6114l9.6336,5.5621a1.704,1.704,0,0,1,.7262,1.8787h0A.9673.9673,0,0,1,287.7236,175.97Z" transform="translate(-16.7298 -70.5183)" fill="#f8359e"/><path d="M273.6835,229.0215,262.526,222.58a1.704,1.704,0,0,1-.7261-1.8787h0a.9673.9673,0,0,1,1.4689-.6114l11.1576,6.4419a1.7041,1.7041,0,0,1,.7262,1.8787h0A.9674.9674,0,0,1,273.6835,229.0215Z" transform="translate(-16.7298 -70.5183)" fill="#e8975b"/><path d="M347.765,197.0522,342.99,194.295a1.2451,1.2451,0,0,1-.5307-1.3732h0a.7069.7069,0,0,1,1.0736-.4468l4.7755,2.757a1.2458,1.2458,0,0,1,.5307,1.3733h0A.7071.7071,0,0,1,347.765,197.0522Z" transform="translate(-16.7298 -70.5183)" fill="#fff"/><path d="M356.8742,202.3113l-4.7755-2.7571a1.2457,1.2457,0,0,1-.5308-1.3732h0a.7071.7071,0,0,1,1.0738-.4468l4.7755,2.757a1.2457,1.2457,0,0,1,.5307,1.3732h0A.707.707,0,0,1,356.8742,202.3113Z" transform="translate(-16.7298 -70.5183)" fill="#fff"/><path d="M365.9833,207.5705l-4.7754-2.7571a1.2457,1.2457,0,0,1-.5308-1.3732h0a.707.707,0,0,1,1.0737-.4469l4.7755,2.7571a1.2456,1.2456,0,0,1,.5308,1.3732h0A.7071.7071,0,0,1,365.9833,207.5705Z" transform="translate(-16.7298 -70.5183)" fill="#fff"/><path d="M370.4607,210.1588l-.1436-.0863a1.2454,1.2454,0,0,1-.5308-1.3731h0a.707.707,0,0,1,1.0737-.4469l.1437.0863a1.2453,1.2453,0,0,1,.5307,1.3732h0A.707.707,0,0,1,370.4607,210.1588Z" transform="translate(-16.7298 -70.5183)" fill="#f8359e"/><path d="M123.9828,266.0462a17.4722,17.4722,0,0,1-8.74-2.3348h0l-31.9907-18.47a4.4284,4.4284,0,0,1,0-7.6719l31.99-18.4695a17.5289,17.5289,0,0,1,17.4818,0L164.7138,237.57a4.4283,4.4283,0,0,1,0,7.6718l-31.99,18.4694A17.4729,17.4729,0,0,1,123.9828,266.0462Zm-7.7-4.1374a15.45,15.45,0,0,0,15.4016,0l31.99-18.4695a2.3481,2.3481,0,0,0,0-4.0664l-31.9907-18.47a15.445,15.445,0,0,0-15.4016,0l-31.99,18.47a2.3482,2.3482,0,0,0,0,4.0663Z" transform="translate(-16.7298 -70.5183)" fill="#6b46c1"/><ellipse cx="107.0913" cy="171.3221" rx="21.9731" ry="12.6862" fill="#020230" opacity="0.6"/><path d="M156.3929,151.423H93.8069l5.8213,67.7626h0c0,3.7636,2.4869,7.5272,7.4608,10.3985,9.9475,5.7433,26.0756,5.7435,36.0227,0,4.9739-2.8717,7.46-6.6353,7.46-10.3993Z" transform="translate(-16.7298 -70.5183)" fill="url(#g)"/><path d="M156.3929,151.423H93.8069l.9576,11.148a24.3444,24.3444,0,0,0,5.8007,5.2182c11.9592,7.9335,31.6923,9.4621,45.1574,3.749L143.64,221.1a9.7335,9.7335,0,0,1-2.2362,5.9093c-2.0271,2.3861-5.9333,5.1935-13.4414,6.78a35.32,35.32,0,0,0,15.1493-4.2048c4.9739-2.8717,7.46-6.6353,7.46-10.3993l4.6682-54.3437h0Z" transform="translate(-16.7298 -70.5183)" fill="#06033e" opacity="0.4"/><ellipse cx="108.3703" cy="80.9048" rx="31.293" ry="18.0671" fill="#06033e" opacity="0.4"/><ellipse cx="108.3703" cy="74.5364" rx="26.9534" ry="15.5615" fill="#06033e" opacity="0.4"/><path d="M158.2464,150.5718l.0031.0044-.0053-.0549c-.0024-.0309-.0065-.0619-.0094-.0928l-.6006-6.067-.0261.0681c-.2687-4.5921-3.4313-9.1387-9.503-12.6442C135.4,124.45,114.8,124.45,102.0944,131.7849c-6.2247,3.5941-9.3917,8.2819-9.5167,12.9919l-.0075-.0159-.5723,5.4025c-.0159.1407-.0343.2809-.0449.4216l-.0093.0888.006-.0039c-.3432,5.1469,2.8822,10.3584,9.6883,14.2878,12.9579,7.4814,33.9671,7.4815,46.925.0005C155.412,161.0037,158.6377,155.7508,158.2464,150.5718Z" transform="translate(-16.7298 -70.5183)" fill="url(#h)"/><ellipse cx="108.3703" cy="74.5364" rx="26.9534" ry="15.5615" fill="url(#i)"/><ellipse cx="107.0913" cy="74.5364" rx="26.9534" ry="15.5615" fill="url(#j)"/><path d="M109.2381,136.369c10.5257-6.0772,27.5918-6.0771,38.1178,0,.134.0774.2463.1622.3772.2408a21.5209,21.5209,0,0,0-3.5744-2.5589c-10.5261-6.0772-27.5922-6.0774-38.1179,0-10.3917,6-10.5038,15.6729-.3765,21.7663C98.9019,149.7882,100.0866,141.6525,109.2381,136.369Z" transform="translate(-16.7298 -70.5183)" fill="#06033e" opacity="0.4"/><path d="M106.0406,136.7517c10.5261-6.0771,27.592-6.077,38.1181,0,4.6676,2.6949,7.2607,6.1324,7.789,9.6537.6628-4.42-1.93-8.9719-7.789-12.3544-10.5261-6.0772-27.592-6.0774-38.1181,0-5.8582,3.3822-8.451,7.934-7.7884,12.3537C98.7805,142.8834,101.3735,139.4462,106.0406,136.7517Z" transform="translate(-16.7298 -70.5183)" fill="url(#k)"/><path d="M148.3064,131.9271c-12.6877-7.4745-33.3626-7.6566-46.1791-.4065s-12.9212,19.1868-.2338,26.6613,33.3621,7.657,46.1787.4068S160.9936,139.402,148.3064,131.9271Zm-4.1472,24.1313a35.1238,35.1238,0,0,1-12.256,4.04l-.4894-1.6076a1.5414,1.5414,0,0,0-1.4746-1.0928h-9.6787a1.5419,1.5419,0,0,0-1.4749,1.0928l-.4889,1.6074a35.1257,35.1257,0,0,1-12.2552-4.04c-10.5263-6.0771-10.5267-15.93-.0007-22.0071s27.5918-6.077,38.1179,0S154.685,149.9814,144.1592,156.0584Z" transform="translate(-16.7298 -70.5183)" fill="url(#l)"/><path d="M144.1587,132.899c-10.5261-6.0772-27.5921-6.0775-38.1179,0-5.5166,3.1849-8.1365,7.4069-7.87,11.579.2415-3.7882,2.8614-7.5351,7.87-10.4268,10.5258-6.0772,27.5918-6.0771,38.1179,0,5.0092,2.892,7.6292,6.6392,7.8709,10.4276C152.2958,140.3064,149.6759,136.0841,144.1587,132.899Z" transform="translate(-16.7298 -70.5183)" fill="#fff"/><path d="M148.0722,157.4365c-12.8165,7.25-33.4914,7.068-46.1788-.4068-6.0375-3.557-9.1718-8.1245-9.4244-12.7166-.25,4.9731,2.8816,10.0144,9.4244,13.8688,12.6874,7.4747,33.3623,7.657,46.1788.4068,6.7172-3.8,9.9364-8.8872,9.6583-13.9448C157.4956,149.3145,154.28,153.9253,148.0722,157.4365Z" transform="translate(-16.7298 -70.5183)" fill="#fff"/><path d="M105.4,88.853h5.94a.6534.6534,0,0,1,.6534.6534v.2574a.6535.6535,0,0,1-.6535.6535H105.4a.6534.6534,0,0,1-.6534-.6534v-.2574A.6535.6535,0,0,1,105.4,88.853Z" fill="#0c0a78"/><path d="M127.9921,159.3713h-5.7848a.7311.7311,0,0,0-.7309.7311v.1022a.6991.6991,0,0,0,.0394.1945.7208.7208,0,0,1,.6915-.5363h5.7848a.7214.7214,0,0,1,.6919.5363.71.71,0,0,0,.0393-.1945v-.1022A.7311.7311,0,0,0,127.9921,159.3713Z" transform="translate(-16.7298 -70.5183)" fill="url(#m)"/><path d="M127.15,160.1534s17.4975-5.8639,10.4129-25.9689-20.8789-26.2324-15.3221-42.3164c0,0-8.7083,13.02-.57,30.6362s9.9226,15.5924,9.827,24.0174a15.2,15.2,0,0,1-8.2,13.6317Z" transform="translate(-16.7298 -70.5183)" fill="#fff" opacity="0.5"/><path d="M128.7233,94.665s-1.8216-12.0267,9.4593-24.1467c0,0-9.9757,22.2821-6.7126,33.2832C131.47,103.8015,128.8307,96.8088,128.7233,94.665Z" transform="translate(-16.7298 -70.5183)" fill="#fff" opacity="0.5"/></svg>